<svg width="500" height="500" viewBox="0 0 500 500" fill="none" xmlns="http://www.w3.org/2000/svg">
<circle cx="250" cy="250" r="232" fill="#BBFF2A"/>
<path d="M429.498 103.006C462.309 143.024 482 194.212 482 250C482 378.13 378.13 482 250 482C121.87 482 18 378.13 18 250C18 245.061 18.1539 240.159 18.458 235.297C190.353 244.038 334.942 218.635 429.498 103.006Z" fill="#90F673"/>
<path d="M429.578 103.104C462.34 143.109 482 194.258 482 250C482 378.13 378.13 482 250 482C145.928 482 57.8623 413.474 28.46 319.081C229.868 304.422 372.631 222.889 429.578 103.104Z" fill="#65EEBE"/>
<path d="M430.479 104.21C462.7 144.049 482 194.77 482 250C482 378.13 378.13 482 250 482C178.597 482 114.729 449.743 72.1709 399.007C251.647 363.053 390.018 231.404 430.479 104.21Z" fill="#00DDFF"/>
<path d="M264.319 216H370L211 426L235.681 284H130L289 74L264.319 216Z" fill="black"/>
</svg>
