<svg width="300" height="400" viewBox="0 0 300 400" fill="none" xmlns="http://www.w3.org/2000/svg">
<rect width="300" height="400" fill="#201F29"/>
<path d="M130.75 185C134.154 185 137.418 183.648 139.824 181.241C142.231 178.834 143.583 175.57 143.583 172.167C143.583 168.763 142.231 165.499 139.824 163.092C137.418 160.685 134.154 159.333 130.75 159.333C127.346 159.333 124.082 160.685 121.675 163.092C119.269 165.499 117.917 168.763 117.917 172.167C117.917 175.57 119.269 178.834 121.675 181.241C124.082 183.648 127.346 185 130.75 185ZM150 114.417L210.958 149.708V220.292L150 255.583L89.0416 220.292V149.708L150 114.417ZM101.875 157.107V212.893L117.095 221.703L168.897 183.717L198.125 201.26V157.113L150 129.239L101.875 157.107Z" fill="#36353F"/>
</svg>
