<svg width="32" height="32" viewBox="0 0 32 32" fill="none" xmlns="http://www.w3.org/2000/svg">
<path d="M26.6667 5.33331C27.3394 5.3331 27.9874 5.58719 28.4807 6.04464C28.974 6.5021 29.2762 7.12911 29.3267 7.79998L29.3333 7.99998V24C29.3335 24.6727 29.0794 25.3207 28.622 25.814C28.1645 26.3074 27.5375 26.6095 26.8667 26.66L26.6667 26.6666H5.33332C4.66055 26.6669 4.01257 26.4128 3.51926 25.9553C3.02595 25.4979 2.72378 24.8709 2.67332 24.2L2.66666 24V7.99998C2.66644 7.32721 2.92053 6.67922 3.37799 6.18592C3.83544 5.69261 4.46245 5.39044 5.13332 5.33998L5.33332 5.33331H26.6667ZM26.6667 9.88531L17.4133 19.1386C17.0383 19.5132 16.53 19.7236 16 19.7236C15.47 19.7236 14.9617 19.5132 14.5867 19.1386L5.33332 9.88531V24H26.6667V9.88531ZM24.7813 7.99998H7.21866L16 16.7813L24.7813 7.99998Z" fill="black"/>
</svg>
