<svg width="32" height="32" viewBox="0 0 32 32" fill="none" xmlns="http://www.w3.org/2000/svg">
<path d="M8.41999 8.23465C8.08666 7.38399 8.09999 6.41199 8.24799 5.52265C9.2666 5.82873 10.2234 6.31165 11.0747 6.94932C11.448 7.23465 11.9373 7.32665 12.3933 7.18932C13.5632 6.83842 14.7786 6.6623 16 6.66665C17.2813 6.66665 18.4987 6.85332 19.604 7.18799C20.06 7.32665 20.5493 7.23332 20.9213 6.94799C21.7722 6.31045 22.7285 5.82754 23.7467 5.52132C23.8947 6.41065 23.9067 7.38265 23.576 8.23199C23.376 8.74399 23.476 9.33332 23.8533 9.75199C24.8187 10.8227 25.3333 12.0533 25.3333 13.3333C25.3333 16.152 22.7067 18.916 18.488 19.7573C17.432 19.968 17.02 21.2973 17.828 22.0587C18.3467 22.5467 18.6667 23.2347 18.6667 24V28C18.6667 28.3536 18.8071 28.6927 19.0572 28.9428C19.3072 29.1928 19.6464 29.3333 20 29.3333C20.3536 29.3333 20.6928 29.1928 20.9428 28.9428C21.1928 28.6927 21.3333 28.3536 21.3333 28V24C21.3333 23.24 21.1733 22.5173 20.888 21.8627C24.9107 20.4667 28 17.324 28 13.3333C28 11.5373 27.3547 9.88665 26.284 8.50399C26.564 7.41065 26.5387 6.30932 26.432 5.46399C26.3373 4.70665 26.2053 3.71465 25.672 3.12265C24.8787 2.24399 23.5653 2.76132 22.632 3.07999C21.6303 3.41761 20.6776 3.88611 19.7987 4.47332C18.5574 4.15609 17.2811 3.99705 16 3.99999C14.6747 3.99999 13.396 4.16665 12.1987 4.47465C11.3197 3.88744 10.367 3.41895 9.36532 3.08132C8.43199 2.76132 7.11732 2.24399 6.32399 3.12265C5.77999 3.72532 5.66666 4.63865 5.56932 5.41465L5.56266 5.46532C5.45599 6.31199 5.43199 7.41465 5.71199 8.50932C4.64532 9.89065 3.99999 11.5387 3.99999 13.3333C3.99999 17.3227 7.08932 20.4667 11.112 21.8627C10.8213 22.5285 10.6698 23.2468 10.6667 23.9733L10.4427 24.0187C9.48666 24.1507 8.87466 24.032 8.45866 23.856C7.44532 23.4267 6.92266 22.3453 6.28532 21.5187C5.88799 21.0053 5.30932 20.364 4.42132 20.068C4.25516 20.0127 4.07972 19.9906 3.90503 20.0031C3.73034 20.0155 3.55981 20.0623 3.40319 20.1407C3.08688 20.2989 2.8464 20.5764 2.73466 20.912C2.62291 21.2476 2.64906 21.6138 2.80734 21.9301C2.96562 22.2464 3.24307 22.4869 3.57866 22.5987C4.32266 22.8467 4.83732 24.1213 5.30932 24.6867C5.80666 25.284 6.46799 25.908 7.41599 26.3107C8.32532 26.6973 9.39332 26.8347 10.6667 26.6787V28C10.6667 28.3536 10.8071 28.6927 11.0572 28.9428C11.3072 29.1928 11.6464 29.3333 12 29.3333C12.3536 29.3333 12.6928 29.1928 12.9428 28.9428C13.1928 28.6927 13.3333 28.3536 13.3333 28V24C13.3333 23.2347 13.6533 22.5467 14.172 22.0587C14.9813 21.296 14.568 19.968 13.512 19.7573C9.29199 18.916 6.66666 16.152 6.66666 13.3333C6.66666 12.056 7.17999 10.8253 8.14399 9.75465C8.52132 9.33599 8.61999 8.74665 8.41999 8.23465Z" fill="black"/>
</svg>
