<svg width="32" height="32" viewBox="0 0 32 32" fill="none" xmlns="http://www.w3.org/2000/svg">
<path d="M27.4717 23.4717C27.4714 25.6113 25.7907 27.3593 23.6777 27.4668L23.4717 27.4717H8.5293L8.32324 27.4668C6.27827 27.363 4.6382 25.7226 4.53418 23.6777L4.52832 23.4717V22.5C4.52832 22.2239 4.75218 22 5.02832 22H6.5293C6.80544 22 7.0293 22.2239 7.0293 22.5V23.4717C7.02956 24.2999 7.70103 24.9717 8.5293 24.9717H23.4717C24.2997 24.9714 24.9714 24.2997 24.9717 23.4717V22.5C24.9717 22.2239 25.1955 22 25.4717 22H26.9717C27.2478 22 27.4717 22.2239 27.4717 22.5V23.4717Z" fill="black"/>
<path d="M23.4717 4.52832C25.6806 4.52858 27.4717 6.32032 27.4717 8.5293V9.5C27.4717 9.77614 27.2478 10 26.9717 10H25.4717C25.1955 10 24.9717 9.77614 24.9717 9.5V8.5293C24.9717 7.70103 24.2999 7.02956 23.4717 7.0293H8.5293C7.70087 7.0293 7.0293 7.70087 7.0293 8.5293V9.5C7.0293 9.77614 6.80544 10 6.5293 10H5.02832C4.75218 10 4.52832 9.77614 4.52832 9.5V8.5293C4.52832 6.32016 6.32016 4.52832 8.5293 4.52832H23.4717Z" fill="black"/>
<path d="M9.12772 18.8697C9.12654 18.8958 9.06984 20.0218 8.07521 20.022H7.57251C7.57251 20.022 6.593 19.9208 6.593 18.7496H7.57991V11.978H9.12772V18.8697Z" fill="black"/>
<path d="M12.8064 18.3744C12.8661 18.4385 12.9442 18.4656 13.0069 18.477L13.1169 18.4844H15.1406L14.3247 20.022H12.422C12.1659 20.0219 12.0376 19.8483 12.0376 19.8483L12.8064 18.3744Z" fill="black"/>
<path d="M19.834 14.0378H18.8544V18.5389H20.3376V20.022H15.1305L15.8716 18.5389H17.3353V14.0378H16.3382V12.4641H19.834V14.0378Z" fill="black"/>
<path fill-rule="evenodd" clip-rule="evenodd" d="M23.3574 12.4641H23.9525C24.1782 12.4639 24.4019 12.5081 24.6105 12.5944C24.8192 12.6807 25.0089 12.808 25.1686 12.9677C25.3283 13.1274 25.4547 13.3172 25.541 13.5258C25.6273 13.7345 25.6724 13.958 25.6722 14.1838V15.1993H25.8542L25.8552 15.1984C26.2512 15.1997 26.6305 15.3572 26.9114 15.6364C27.1922 15.9156 27.3522 16.2939 27.3559 16.6898V18.7219C27.356 18.8924 27.3221 19.0614 27.257 19.219C27.1918 19.3765 27.0965 19.5198 26.9761 19.6404C26.8555 19.761 26.7122 19.857 26.5547 19.9222C26.3972 19.9874 26.228 20.0212 26.0575 20.0211H25.6639C25.4933 20.0212 25.3243 19.9874 25.1667 19.9222C25.009 19.857 24.8651 19.7611 24.7444 19.6404C24.6239 19.5198 24.5287 19.3765 24.4635 19.219C24.3983 19.0614 24.3646 18.8924 24.3646 18.7219H25.8006V17.1011C25.8006 16.9001 25.6364 16.7353 25.4338 16.7351H23.3574V20.0202H21.8484V16.7351H20.3376V15.1892H21.8484V13.9906H20.8957V12.4539H21.8484V11.978H23.3574V12.4641ZM23.3565 15.1993H24.1346V14.2383C24.1349 14.207 24.1288 14.1758 24.117 14.1468C24.1052 14.1179 24.0883 14.0913 24.0662 14.0692C24.044 14.0471 24.0175 14.0293 23.9886 14.0174C23.9596 14.0057 23.9283 14.0005 23.8971 14.0008H23.3565V15.1993Z" fill="black"/>
<path d="M11.7179 14.0368C11.5816 16.0953 12.0847 17.661 12.0847 17.661L11.2337 19.2079C10.1079 18.7318 10.135 14.0368 10.135 14.0368H11.7179Z" fill="black"/>
<path d="M6.57822 14.777C6.53097 16.1195 6.33239 18.8496 5.49614 19.207L4.64415 17.6601C4.64415 17.6601 5.14784 16.0946 5.00915 14.0378H6.593L6.57822 14.777Z" fill="black"/>
<path d="M14.3071 14.0184C14.2521 14.1108 14.3253 14.2291 14.4356 14.2291H14.527L14.6176 14.0461H16.1007L14.8283 16.5438C14.7733 16.6354 14.8473 16.7544 14.9558 16.7545H15.8078L15.1212 17.99H13.4098C12.6833 17.9535 13.1307 17.0688 13.1363 17.0576L13.9227 15.4553H12.8979C12.168 15.4282 12.6211 14.5266 12.6235 14.522L13.8867 11.978H15.3689L14.3071 14.0184Z" fill="black"/>
<path d="M26.5685 12.4632C26.7671 12.4642 26.9576 12.5437 27.098 12.684C27.2385 12.8244 27.3178 13.0149 27.3189 13.2135C27.3192 13.3121 27.3001 13.4098 27.2625 13.5009C27.2249 13.5921 27.1696 13.6751 27.0999 13.7448C27.0302 13.8145 26.9471 13.8699 26.8559 13.9075C26.7649 13.945 26.667 13.9642 26.5685 13.9638H25.8191V13.2135C25.8202 13.0149 25.8996 12.8244 26.04 12.684C26.1803 12.5439 26.3702 12.4643 26.5685 12.4632Z" fill="black"/>
</svg>
